<svg width="29" height="29" viewBox="0 0 29 29" fill="none" xmlns="http://www.w3.org/2000/svg">
<path d="M27.625 24.7083V14.8894C27.625 14.0982 27.464 13.3152 27.1519 12.5882C26.8398 11.8611 26.383 11.2052 25.8094 10.6602L16.5096 1.82708C15.9675 1.31212 15.2484 1.02499 14.5007 1.02499C13.7531 1.02499 13.0339 1.31212 12.4919 1.82708L3.19062 10.6602C2.61699 11.2052 2.16022 11.8611 1.84809 12.5882C1.53596 13.3152 1.375 14.0982 1.375 14.8894V24.7083C1.375 25.4819 1.68229 26.2237 2.22927 26.7707C2.77625 27.3177 3.51812 27.625 4.29167 27.625H24.7083C25.4819 27.625 26.2237 27.3177 26.7707 26.7707C27.3177 26.2237 27.625 25.4819 27.625 24.7083Z" stroke="white" stroke-width="2" stroke-linecap="round" stroke-linejoin="round"/>
</svg>
