<svg width="26" height="26" viewBox="0 0 26 26" fill="none" xmlns="http://www.w3.org/2000/svg">
<path fill-rule="evenodd" clip-rule="evenodd" d="M25.7026 0.183521C25.7957 0.259791 25.8706 0.355769 25.922 0.464523C25.9734 0.573278 26.0001 0.692095 26 0.812396V23.5624C25.9999 23.7502 25.9347 23.9321 25.8157 24.0772C25.6966 24.2224 25.5309 24.3218 25.3467 24.3586L17.2217 25.9836C17.1166 26.0046 17.0084 26.0046 16.9033 25.9836L8.9375 24.3911L0.97175 25.9836C0.853919 26.0072 0.732331 26.0043 0.615746 25.9752C0.499161 25.9461 0.390481 25.8915 0.297536 25.8154C0.204592 25.7392 0.129697 25.6434 0.0782466 25.5348C0.0267965 25.4262 7.25607e-05 25.3076 0 25.1874L0 2.4374C0.000113396 2.24963 0.0652537 2.0677 0.184346 1.92254C0.303437 1.77738 0.469129 1.67795 0.65325 1.64115L8.77825 0.0161457C8.88338 -0.00486679 8.99162 -0.00486679 9.09675 0.0161457L17.0625 1.60865L25.0283 0.0161457C25.146 -0.00755364 25.2676 -0.00483418 25.3842 0.0241081C25.5008 0.0530505 25.6096 0.107495 25.7026 0.183521ZM16.25 3.10365L9.75 1.80365V22.8961L16.25 24.1961V3.10365ZM17.875 24.1961L24.375 22.8961V1.80365L17.875 3.10365V24.1961ZM8.125 22.8961V1.80365L1.625 3.10365V24.1961L8.125 22.8961Z" fill="#C5C5C5"/>
</svg>
