<svg width="32" height="27" viewBox="0 0 32 27" fill="none" xmlns="http://www.w3.org/2000/svg">
<path d="M25.0182 10.7894C25.0182 11.059 24.9262 11.3175 24.7626 11.5081C24.5989 11.6988 24.3769 11.8059 24.1455 11.8059H12.5091C12.2776 11.8059 12.0556 11.6988 11.892 11.5081C11.7283 11.3175 11.6364 11.059 11.6364 10.7894C11.6364 10.5198 11.7283 10.2612 11.892 10.0706C12.0556 9.87998 12.2776 9.77289 12.5091 9.77289H24.1455C24.3769 9.77289 24.5989 9.87998 24.7626 10.0706C24.9262 10.2612 25.0182 10.5198 25.0182 10.7894ZM24.1455 15.1941H12.5091C12.2776 15.1941 12.0556 15.3012 11.892 15.4919C11.7283 15.6825 11.6364 15.941 11.6364 16.2106C11.6364 16.4802 11.7283 16.7388 11.892 16.9294C12.0556 17.12 12.2776 17.2271 12.5091 17.2271H24.1455C24.3769 17.2271 24.5989 17.12 24.7626 16.9294C24.9262 16.7388 25.0182 16.4802 25.0182 16.2106C25.0182 15.941 24.9262 15.6825 24.7626 15.4919C24.5989 15.3012 24.3769 15.1941 24.1455 15.1941ZM32 2.6575V22.9872C31.9962 23.9743 31.6578 24.9197 31.0585 25.6177C30.4592 26.3157 29.6475 26.7098 28.8 26.7143H3.2C2.35382 26.7143 1.54209 26.3239 0.942385 25.6286C0.342685 24.9333 0.00384627 23.9897 0 23.0041V6.72343C0 6.45385 0.0919478 6.1953 0.255616 6.00467C0.419284 5.81404 0.641266 5.70695 0.872727 5.70695C1.10419 5.70695 1.32617 5.81404 1.48984 6.00467C1.65351 6.1953 1.74545 6.45385 1.74545 6.72343V22.9872C1.74545 23.4365 1.8987 23.8674 2.17148 24.1851C2.44426 24.5028 2.81423 24.6813 3.2 24.6813C3.58577 24.6813 3.95574 24.5028 4.22852 24.1851C4.5013 23.8674 4.65455 23.4365 4.65455 22.9872V2.6575C4.65455 2.02846 4.86909 1.42519 5.25098 0.980388C5.63287 0.535591 6.15083 0.285706 6.69091 0.285706H29.9636C30.5037 0.285706 31.0217 0.535591 31.4036 0.980388C31.7855 1.42519 32 2.02846 32 2.6575ZM30.2545 2.6575C30.2545 2.56764 30.2239 2.48146 30.1693 2.41791C30.1148 2.35437 30.0408 2.31867 29.9636 2.31867H6.69091C6.61375 2.31867 6.53976 2.35437 6.48521 2.41791C6.43065 2.48146 6.4 2.56764 6.4 2.6575V22.9872C6.39855 23.5758 6.27901 24.156 6.05091 24.6813H28.8C29.1858 24.6813 29.5557 24.5028 29.8285 24.1851C30.1013 23.8674 30.2545 23.4365 30.2545 22.9872V2.6575Z" fill="#C5C5C5"/>
</svg>
