<svg width="27" height="27" viewBox="0 0 27 27" fill="none" xmlns="http://www.w3.org/2000/svg">
<path d="M13.5 13.5C15.2405 13.5 16.9097 12.8086 18.1404 11.5779C19.3711 10.3472 20.0625 8.67798 20.0625 6.9375C20.0625 5.19702 19.3711 3.52782 18.1404 2.29711C16.9097 1.0664 15.2405 0.375 13.5 0.375C11.7595 0.375 10.0903 1.0664 8.85961 2.29711C7.6289 3.52782 6.9375 5.19702 6.9375 6.9375C6.9375 8.67798 7.6289 10.3472 8.85961 11.5779C10.0903 12.8086 11.7595 13.5 13.5 13.5ZM17.875 6.9375C17.875 8.09782 17.4141 9.21062 16.5936 10.0311C15.7731 10.8516 14.6603 11.3125 13.5 11.3125C12.3397 11.3125 11.2269 10.8516 10.4064 10.0311C9.58594 9.21062 9.125 8.09782 9.125 6.9375C9.125 5.77718 9.58594 4.66438 10.4064 3.84391C11.2269 3.02344 12.3397 2.5625 13.5 2.5625C14.6603 2.5625 15.7731 3.02344 16.5936 3.84391C17.4141 4.66438 17.875 5.77718 17.875 6.9375ZM26.625 24.4375C26.625 26.625 24.4375 26.625 24.4375 26.625H2.5625C2.5625 26.625 0.375 26.625 0.375 24.4375C0.375 22.25 2.5625 15.6875 13.5 15.6875C24.4375 15.6875 26.625 22.25 26.625 24.4375ZM24.4375 24.4288C24.4353 23.8906 24.1006 22.2719 22.6175 20.7887C21.1912 19.3625 18.5072 17.875 13.5 17.875C8.49063 17.875 5.80875 19.3625 4.3825 20.7887C2.89938 22.2719 2.56687 23.8906 2.5625 24.4288H24.4375Z" fill="#C5C5C5"/>
</svg>
